<mxfile host="app.diagrams.net" modified="2023-09-09T15:46:22.564Z" agent="Mozilla/5.0 (Windows NT 10.0; Win64; x64) AppleWebKit/537.36 (KHTML, like Gecko) Chrome/116.0.0.0 Safari/537.36" etag="gKABVb9nqdo-i4uC5gVW" version="21.7.2" type="github">
  <diagram name="第 1 页" id="Q6WJvl4ahNPjO96IyAwh">
    <mxGraphModel dx="1562" dy="854" grid="1" gridSize="10" guides="1" tooltips="1" connect="1" arrows="1" fold="1" page="1" pageScale="1" pageWidth="827" pageHeight="1169" math="0" shadow="0">
      <root>
        <mxCell id="0" />
        <mxCell id="1" parent="0" />
        <mxCell id="kGa6kW-DvR6jlH-76jpg-5" value="手机客户端" style="text;html=1;strokeColor=none;fillColor=none;align=center;verticalAlign=middle;whiteSpace=wrap;rounded=0;" vertex="1" parent="1">
          <mxGeometry x="60" y="250" width="76" height="30" as="geometry" />
        </mxCell>
        <mxCell id="kGa6kW-DvR6jlH-76jpg-12" style="edgeStyle=orthogonalEdgeStyle;rounded=0;orthogonalLoop=1;jettySize=auto;html=1;entryX=0;entryY=0.5;entryDx=0;entryDy=0;entryPerimeter=0;" edge="1" parent="1" source="kGa6kW-DvR6jlH-76jpg-6" target="kGa6kW-DvR6jlH-76jpg-8">
          <mxGeometry relative="1" as="geometry" />
        </mxCell>
        <mxCell id="kGa6kW-DvR6jlH-76jpg-14" style="edgeStyle=orthogonalEdgeStyle;rounded=0;orthogonalLoop=1;jettySize=auto;html=1;entryX=0;entryY=0.5;entryDx=0;entryDy=0;entryPerimeter=0;" edge="1" parent="1" source="kGa6kW-DvR6jlH-76jpg-6" target="kGa6kW-DvR6jlH-76jpg-9">
          <mxGeometry relative="1" as="geometry" />
        </mxCell>
        <mxCell id="kGa6kW-DvR6jlH-76jpg-15" style="edgeStyle=orthogonalEdgeStyle;rounded=0;orthogonalLoop=1;jettySize=auto;html=1;entryX=0.106;entryY=0.761;entryDx=0;entryDy=0;entryPerimeter=0;" edge="1" parent="1" source="kGa6kW-DvR6jlH-76jpg-6" target="kGa6kW-DvR6jlH-76jpg-10">
          <mxGeometry relative="1" as="geometry">
            <Array as="points">
              <mxPoint x="325" y="396" />
              <mxPoint x="482" y="396" />
            </Array>
          </mxGeometry>
        </mxCell>
        <mxCell id="kGa6kW-DvR6jlH-76jpg-6" value="" style="sketch=0;aspect=fixed;pointerEvents=1;shadow=0;dashed=0;html=1;strokeColor=none;labelPosition=center;verticalLabelPosition=bottom;verticalAlign=top;align=center;fillColor=#00188D;shape=mxgraph.mscae.enterprise.server_generic" vertex="1" parent="1">
          <mxGeometry x="313" y="280" width="24" height="50" as="geometry" />
        </mxCell>
        <mxCell id="kGa6kW-DvR6jlH-76jpg-11" style="edgeStyle=orthogonalEdgeStyle;rounded=0;orthogonalLoop=1;jettySize=auto;html=1;entryX=0;entryY=0.5;entryDx=0;entryDy=0;entryPerimeter=0;" edge="1" parent="1" source="kGa6kW-DvR6jlH-76jpg-7" target="kGa6kW-DvR6jlH-76jpg-6">
          <mxGeometry relative="1" as="geometry" />
        </mxCell>
        <mxCell id="kGa6kW-DvR6jlH-76jpg-7" value="" style="sketch=0;aspect=fixed;pointerEvents=1;shadow=0;dashed=0;html=1;strokeColor=none;labelPosition=center;verticalLabelPosition=bottom;verticalAlign=top;align=center;fillColor=#00188D;shape=mxgraph.azure.mobile" vertex="1" parent="1">
          <mxGeometry x="80.5" y="280" width="35" height="50" as="geometry" />
        </mxCell>
        <mxCell id="kGa6kW-DvR6jlH-76jpg-8" value="" style="sketch=0;aspect=fixed;pointerEvents=1;shadow=0;dashed=0;html=1;strokeColor=none;labelPosition=center;verticalLabelPosition=bottom;verticalAlign=top;align=center;fillColor=#00188D;shape=mxgraph.mscae.enterprise.database_server" vertex="1" parent="1">
          <mxGeometry x="482.5" y="220" width="38" height="50" as="geometry" />
        </mxCell>
        <mxCell id="kGa6kW-DvR6jlH-76jpg-9" value="" style="sketch=0;aspect=fixed;pointerEvents=1;shadow=0;dashed=0;html=1;strokeColor=none;labelPosition=center;verticalLabelPosition=bottom;verticalAlign=top;align=center;fillColor=#00188D;shape=mxgraph.mscae.enterprise.database_generic" vertex="1" parent="1">
          <mxGeometry x="483" y="300" width="37" height="50" as="geometry" />
        </mxCell>
        <mxCell id="kGa6kW-DvR6jlH-76jpg-10" value="" style="sketch=0;aspect=fixed;pointerEvents=1;shadow=0;dashed=0;html=1;strokeColor=none;labelPosition=center;verticalLabelPosition=bottom;verticalAlign=top;align=center;fillColor=#00188D;shape=mxgraph.mscae.enterprise.internet" vertex="1" parent="1">
          <mxGeometry x="476.5" y="380" width="50" height="31" as="geometry" />
        </mxCell>
        <mxCell id="kGa6kW-DvR6jlH-76jpg-16" value="后端服务器" style="text;html=1;strokeColor=none;fillColor=none;align=center;verticalAlign=middle;whiteSpace=wrap;rounded=0;" vertex="1" parent="1">
          <mxGeometry x="291" y="250" width="68" height="30" as="geometry" />
        </mxCell>
        <mxCell id="kGa6kW-DvR6jlH-76jpg-17" value="传统数据库" style="text;html=1;strokeColor=none;fillColor=none;align=center;verticalAlign=middle;whiteSpace=wrap;rounded=0;" vertex="1" parent="1">
          <mxGeometry x="466.5" y="190" width="70" height="30" as="geometry" />
        </mxCell>
        <mxCell id="kGa6kW-DvR6jlH-76jpg-18" value="向量数据库" style="text;html=1;strokeColor=none;fillColor=none;align=center;verticalAlign=middle;whiteSpace=wrap;rounded=0;" vertex="1" parent="1">
          <mxGeometry x="466.5" y="270" width="66.5" height="30" as="geometry" />
        </mxCell>
        <mxCell id="kGa6kW-DvR6jlH-76jpg-19" value="AWS SageMaker" style="text;html=1;strokeColor=none;fillColor=none;align=center;verticalAlign=middle;whiteSpace=wrap;rounded=0;" vertex="1" parent="1">
          <mxGeometry x="469.75" y="350" width="60" height="30" as="geometry" />
        </mxCell>
        <mxCell id="kGa6kW-DvR6jlH-76jpg-21" value="HTTP请求" style="swimlane;fontStyle=0;childLayout=stackLayout;horizontal=1;startSize=30;horizontalStack=0;resizeParent=1;resizeParentMax=0;resizeLast=0;collapsible=1;marginBottom=0;whiteSpace=wrap;html=1;" vertex="1" parent="1">
          <mxGeometry x="136" y="170" width="140" height="120" as="geometry" />
        </mxCell>
        <mxCell id="kGa6kW-DvR6jlH-76jpg-22" value="用户注册登录" style="text;strokeColor=none;fillColor=none;align=left;verticalAlign=middle;spacingLeft=4;spacingRight=4;overflow=hidden;points=[[0,0.5],[1,0.5]];portConstraint=eastwest;rotatable=0;whiteSpace=wrap;html=1;" vertex="1" parent="kGa6kW-DvR6jlH-76jpg-21">
          <mxGeometry y="30" width="140" height="30" as="geometry" />
        </mxCell>
        <mxCell id="kGa6kW-DvR6jlH-76jpg-23" value="用户上传答题信息" style="text;strokeColor=none;fillColor=none;align=left;verticalAlign=middle;spacingLeft=4;spacingRight=4;overflow=hidden;points=[[0,0.5],[1,0.5]];portConstraint=eastwest;rotatable=0;whiteSpace=wrap;html=1;" vertex="1" parent="kGa6kW-DvR6jlH-76jpg-21">
          <mxGeometry y="60" width="140" height="30" as="geometry" />
        </mxCell>
        <mxCell id="kGa6kW-DvR6jlH-76jpg-24" value="题目、学生总结获取" style="text;strokeColor=none;fillColor=none;align=left;verticalAlign=middle;spacingLeft=4;spacingRight=4;overflow=hidden;points=[[0,0.5],[1,0.5]];portConstraint=eastwest;rotatable=0;whiteSpace=wrap;html=1;" vertex="1" parent="kGa6kW-DvR6jlH-76jpg-21">
          <mxGeometry y="90" width="140" height="30" as="geometry" />
        </mxCell>
        <mxCell id="kGa6kW-DvR6jlH-76jpg-25" value="List" style="swimlane;fontStyle=0;childLayout=stackLayout;horizontal=1;startSize=30;horizontalStack=0;resizeParent=1;resizeParentMax=0;resizeLast=0;collapsible=1;marginBottom=0;whiteSpace=wrap;html=1;" vertex="1" parent="1">
          <mxGeometry x="280" y="120" width="140" height="120" as="geometry" />
        </mxCell>
        <mxCell id="kGa6kW-DvR6jlH-76jpg-26" value="Item 1" style="text;strokeColor=none;fillColor=none;align=left;verticalAlign=middle;spacingLeft=4;spacingRight=4;overflow=hidden;points=[[0,0.5],[1,0.5]];portConstraint=eastwest;rotatable=0;whiteSpace=wrap;html=1;" vertex="1" parent="kGa6kW-DvR6jlH-76jpg-25">
          <mxGeometry y="30" width="140" height="30" as="geometry" />
        </mxCell>
        <mxCell id="kGa6kW-DvR6jlH-76jpg-27" value="Item 2" style="text;strokeColor=none;fillColor=none;align=left;verticalAlign=middle;spacingLeft=4;spacingRight=4;overflow=hidden;points=[[0,0.5],[1,0.5]];portConstraint=eastwest;rotatable=0;whiteSpace=wrap;html=1;" vertex="1" parent="kGa6kW-DvR6jlH-76jpg-25">
          <mxGeometry y="60" width="140" height="30" as="geometry" />
        </mxCell>
        <mxCell id="kGa6kW-DvR6jlH-76jpg-28" value="Item 3" style="text;strokeColor=none;fillColor=none;align=left;verticalAlign=middle;spacingLeft=4;spacingRight=4;overflow=hidden;points=[[0,0.5],[1,0.5]];portConstraint=eastwest;rotatable=0;whiteSpace=wrap;html=1;" vertex="1" parent="kGa6kW-DvR6jlH-76jpg-25">
          <mxGeometry y="90" width="140" height="30" as="geometry" />
        </mxCell>
        <mxCell id="kGa6kW-DvR6jlH-76jpg-29" value="" style="sketch=0;aspect=fixed;pointerEvents=1;shadow=0;dashed=0;html=1;strokeColor=none;labelPosition=center;verticalLabelPosition=bottom;verticalAlign=top;align=center;fillColor=#00188D;shape=mxgraph.azure.server" vertex="1" parent="1">
          <mxGeometry x="477" y="460" width="50" height="15" as="geometry" />
        </mxCell>
        <mxCell id="kGa6kW-DvR6jlH-76jpg-30" value="图像识别API" style="text;html=1;strokeColor=none;fillColor=none;align=center;verticalAlign=middle;whiteSpace=wrap;rounded=0;" vertex="1" parent="1">
          <mxGeometry x="471.5" y="430" width="60" height="30" as="geometry" />
        </mxCell>
      </root>
    </mxGraphModel>
  </diagram>
</mxfile>
